# xmcd
# 
# Track frame offsets:
#     150
#     15462
#     28612
#     41055
#     51635
#     62820
#     90220
#     115355
#     133247
#     147687
#     161352
# 
# Disc length: 2580
# 
# Revision: 2
# Processed by: cddbd v1.5.2PL0 Copyright (c) Steve Scherf et al.
# Submitted via: BonkEnc v1.0beta4
# 
DISCID=9b0a120b
DTITLE=Various Artist - Jazz Legends - Crooners - Disc 2
DYEAR=2002
DGENRE=Jazz
TTITLE0=The Dave Bruebeck Quartet - Ain't Misbehavin'
TTITLE1=Jiimmy Witherspoon - Ain't Nobody's Business
TTITLE2=Louis Prima - One Mint Julep
TTITLE3=Louis Prima - Oh, Marie
TTITLE4=Louis Prima - Basta
TTITLE5=Chet Baker - Fair Weather
TTITLE6=Bobby McFerrin - 'Round Midnight
TTITLE7=Frank McComb - (They're Gonna Be) Looking At You
TTITLE8=Frank Sinatra - These Foolish Things (Remind Me Of You)
TTITLE9=Frank Sinatra - Try A Little Tenderness
TTITLE10=Luther Vandross - A House Is Not A Home
EXTD=YEAR: 2002
EXTT0=
EXTT1=
EXTT2=
EXTT3=
EXTT4=
EXTT5=
EXTT6=
EXTT7=
EXTT8=
EXTT9=
EXTT10=
PLAYORDER=
